<svg xmlns="http://www.w3.org/2000/svg" version="1.1" xmlns:xlink="http://www.w3.org/1999/xlink" xmlns:svgjs="http://svgjs.dev/svgjs" width="2000" height="1500" viewBox="0 0 2000 1500"><rect width="2000" height="1500" fill="#ffffff"></rect><g transform="matrix(0.75,0,0,0.75,249.090909090909,641.1169876542018)"><svg viewBox="0 0 396 58" data-background-color="#ffffff" preserveAspectRatio="xMidYMid meet" height="292" width="2000" xmlns="http://www.w3.org/2000/svg" xmlns:xlink="http://www.w3.org/1999/xlink"><g id="tight-bounds" transform="matrix(1,0,0,1,0.2400000000000091,-0.163403123030605)"><svg viewBox="0 0 395.52 58.326806246061196" height="58.326806246061196" width="395.52"><g><svg viewBox="0 0 395.52 58.326806246061196" height="58.326806246061196" width="395.52"><g><svg viewBox="0 0 395.52 58.326806246061196" height="58.326806246061196" width="395.52"><g id="textblocktransform"><svg viewBox="0 0 395.52 58.326806246061196" height="58.326806246061196" width="395.52" id="textblock"><g><svg viewBox="0 0 395.52 58.326806246061196" height="58.326806246061196" width="395.52"><g transform="matrix(1,0,0,1,0,0)"><svg width="395.52" viewBox="1.27 -33.89 232.41666666666663 34.28" height="58.326806246061196" data-palette-color="#3d3839"><path d="M8.15-32.08L8.15-32.08Q9.96-32.08 12.65-32.32L12.65-32.32Q12.99-31.2 22.31-7.86L22.31-7.86Q22.36-7.76 22.51-7.76L22.51-7.76Q22.71-7.76 22.75-7.96L22.75-7.96Q27.54-19.19 30.37-26.46L30.37-26.46Q30.37-26.46 32.32-32.32L32.32-32.32Q35.45-32.13 36.38-32.13L36.38-32.13Q39.4-32.13 41.85-32.32L41.85-32.32Q41.99-31.88 41.99-31.59L41.99-31.59Q41.99-30.91 41.75-30.91L41.75-30.91 41.65-30.91Q41.11-30.91 40.23-30.59 39.36-30.27 38.92-29.93L38.92-29.93Q38.33-29.49 38.33-26.66L38.33-26.66Q38.33-25.88 38.77-6.84L38.77-6.84Q38.82-4.05 39.5-2.34L39.5-2.34Q39.7-1.9 40.97-1.59 42.24-1.27 42.77-1.27L42.77-1.27Q42.97-1.27 42.97-0.59L42.97-0.59Q42.97-0.15 42.87 0.15L42.87 0.15Q37.99-0.1 37.06-0.1L37.06-0.1Q36.82-0.1 31.2 0.15L31.2 0.15Q31.01-0.05 31.01-0.63L31.01-0.63Q31.01-1.27 31.2-1.27L31.2-1.27Q31.69-1.27 32.69-1.51 33.69-1.76 34.13-2L34.13-2Q34.72-2.34 34.72-4.1L34.72-4.1 34.72-6.69 34.13-23.88Q34.08-24.66 33.86-25.71 33.64-26.76 33.4-26.76L33.4-26.76Q33.3-26.76 33.15-26.42L33.15-26.42 22.95-2Q22.02 0.1 21.14 0.1L21.14 0.1Q21 0.1 20.7 0L20.7 0 9.52-28.42Q9.42-23.73 9.23-17.68 9.03-11.62 8.89-7.69 8.74-3.76 8.74-3.66L8.74-3.66Q8.74-2.78 9.03-2.39 9.33-2 10.82-1.64 12.3-1.27 12.79-1.27L12.79-1.27Q12.99-1.27 12.99-0.54L12.99-0.54Q12.99-0.15 12.89 0.15L12.89 0.15Q8.01-0.1 7.23-0.1L7.23-0.1Q7.13-0.1 1.51 0.15L1.51 0.15Q1.27-0.1 1.27-0.59L1.27-0.59Q1.27-1.27 1.51-1.27L1.51-1.27Q2.2-1.27 3.54-1.59 4.88-1.9 5.32-2.34L5.32-2.34Q6.1-3.22 6.2-6.59L6.2-6.59Q6.3-11.67 6.42-16.6 6.54-21.53 6.64-24.34 6.74-27.15 6.74-27.93L6.74-27.93Q6.74-29.15 6.54-29.88L6.54-29.88Q6.4-30.27 4.88-30.59 3.37-30.91 2.69-30.91L2.69-30.91Q2.49-30.91 2.49-31.59L2.49-31.59Q2.49-32.13 2.69-32.32L2.69-32.32Q3.52-32.28 4.52-32.23 5.52-32.18 6.35-32.13 7.18-32.08 8.15-32.08ZM65.67-16.65L65.67-16.65 65.67-6.88Q65.67-4.79 66.01-3.17L66.01-3.17Q66.11-2.83 66.55-2.64 66.99-2.44 67.48-2.39 67.97-2.34 68.45-2.34L68.45-2.34 68.89-2.29Q69.04-2.25 69.04-1.76L69.04-1.76Q69.04-1.61 68.92-1.29 68.8-0.98 68.65-0.98L68.65-0.98Q67.92-0.93 67.01-0.78 66.11-0.63 65.33-0.44 64.55-0.24 63.86-0.05 63.18 0.15 62.79 0.29L62.79 0.29 62.35 0.39Q61.96 0.39 61.96-0.39L61.96-0.39 61.96-2.88 61.86-3.13Q58.64 0.34 55.47 0.34L55.47 0.34Q53.66 0.34 52.37-0.56 51.07-1.46 50.46-2.95 49.85-4.44 49.61-5.83 49.36-7.23 49.36-8.74L49.36-8.74 49.36-14.89Q49.36-16.8 48.68-17.53L48.68-17.53Q48.19-18.12 47.48-18.33 46.77-18.55 46.31-18.55 45.85-18.55 45.85-18.65L45.85-18.65Q45.85-19.82 46.14-19.87L46.14-19.87Q51.32-20.65 52.88-21.14L52.88-21.14Q52.93-21.14 53.02-21.17 53.12-21.19 53.12-21.19L53.12-21.19Q53.32-21.19 53.37-20.78 53.42-20.36 53.37-20.17L53.37-20.17Q53.07-17.82 53.07-16.55L53.07-16.55 53.07-9.96Q53.07-6.2 54.2-4.42 55.32-2.64 57.86-2.64L57.86-2.64Q59.32-2.64 60.64-3.78 61.96-4.93 61.96-5.76L61.96-5.76 61.96-14.89Q61.96-16.8 61.28-17.53L61.28-17.53Q60.79-18.12 60.08-18.33 59.37-18.55 58.91-18.55 58.44-18.55 58.44-18.65L58.44-18.65Q58.44-19.82 58.74-19.87L58.74-19.87Q63.91-20.65 65.48-21.14L65.48-21.14Q65.52-21.14 65.62-21.17 65.72-21.19 65.72-21.19L65.72-21.19Q65.92-21.19 65.96-20.78 66.01-20.36 65.96-20.17L65.96-20.17Q65.67-17.82 65.67-16.65ZM83.98-21.34L83.98-21.34Q86.86-21.34 87.79-19.92L87.79-19.92Q87.79-18.21 87.25-17.43 86.71-16.65 85.93-16.65L85.93-16.65Q85.05-16.65 84.32-17.48 83.59-18.31 82.32-18.31L82.32-18.31Q80.81-18.31 79.68-16.89 78.56-15.48 78.56-13.92L78.56-13.92 78.56-6.59Q78.56-3.76 78.95-2.25L78.95-2.25Q79.05-1.9 80.24-1.59 81.44-1.27 81.93-1.27L81.93-1.27Q82.08-1.27 82.12-0.68 82.17-0.1 82.08 0.15L82.08 0.15Q77.19-0.1 76.8-0.1L76.8-0.1Q76.51-0.1 71.48 0.15L71.48 0.15Q71.28-0.05 71.28-0.66 71.28-1.27 71.48-1.27L71.48-1.27Q72.07-1.27 73.21-1.59 74.36-1.9 74.46-2.25L74.46-2.25Q74.8-3.66 74.8-5.66L74.8-5.66 74.8-14.89Q74.8-16.8 74.12-17.53L74.12-17.53Q73.63-18.12 72.92-18.33 72.21-18.55 71.75-18.55 71.28-18.55 71.28-18.65L71.28-18.65Q71.28-19.82 71.58-19.87L71.58-19.87Q76.75-20.65 78.32-21.14L78.32-21.14Q78.36-21.14 78.46-21.17 78.56-21.19 78.56-21.19L78.56-21.19Q78.75-21.19 78.8-20.78 78.85-20.36 78.8-20.17L78.8-20.17 78.51-17.72Q79.39-19.04 80.93-20.19 82.47-21.34 83.98-21.34ZM95.06-3.15Q95.89-2.44 97.21-2.44 98.53-2.44 99.75-3.25 100.97-4.05 100.97-4.88L100.97-4.88 100.97-9.91Q100.58-9.72 99.06-9.23 97.55-8.74 96.7-8.37 95.84-8.01 95.04-7.15 94.23-6.3 94.23-5.18L94.23-5.18Q94.23-3.86 95.06-3.15ZM99.65-21.29L99.65-21.29Q102.34-21.29 103.51-20 104.68-18.7 104.68-15.82L104.68-15.82 104.68-4.54Q104.68-3.52 105.22-2.83 105.75-2.15 106.68-2.15L106.68-2.15Q107.37-2.15 108.39-2.83L108.39-2.83Q108.59-2.83 108.59-2.44L108.59-2.44Q108.59-1.81 108.34-1.42L108.34-1.42Q106.34 0.29 104.92 0.29L104.92 0.29Q103.8 0.29 102.78-0.63 101.75-1.56 101.36-2.59L101.36-2.59Q101.31-2.59 100.99-2.27 100.68-1.95 100.14-1.54 99.6-1.12 98.89-0.68 98.19-0.24 97.23 0.05 96.28 0.34 95.31 0.34L95.31 0.34Q93.06 0.34 91.59-0.85 90.13-2.05 90.13-4.44L90.13-4.44Q90.13-5.52 90.67-6.47 91.2-7.42 91.94-8.03 92.67-8.64 93.94-9.28 95.21-9.91 96.11-10.23 97.01-10.55 98.48-11.04 99.94-11.52 100.53-11.77L100.53-11.77Q100.97-11.91 100.97-12.5L100.97-12.5 100.97-16.16Q100.97-17.72 99.99-18.58 99.02-19.43 97.65-19.43L97.65-19.43Q96.18-19.43 95.21-18.43 94.23-17.43 94.23-15.82L94.23-15.82Q94.23-14.11 92.23-14.11L92.23-14.11Q90.86-14.11 90.32-15.04L90.32-15.04Q90.32-17.14 93.4-19.21 96.48-21.29 99.65-21.29ZM112.78-5.86L112.78-18.26 109.95-18.26Q109.71-18.26 109.71-19.29L109.71-19.29Q109.71-19.58 109.76-19.63L109.76-19.63Q111.17-20.26 112.83-22.22L112.83-22.22Q113.37-22.85 113.88-23.66 114.39-24.46 114.74-25.05 115.08-25.63 115.08-25.68L115.08-25.68Q116.54-25.68 116.54-25.44L116.54-25.44 116.54-20.61Q117.81-20.61 120.4-20.58 122.99-20.56 123.13-20.56L123.13-20.56Q123.53-20.56 123.53-20.12L123.53-20.12Q123.53-19.24 123.04-18.26L123.04-18.26 116.54-18.26 116.54-6.3Q116.54-4.35 117.54-3.17 118.54-2 120.16-2L120.16-2Q121.62-2 123.18-2.93L123.18-2.93Q123.33-3.03 123.62-2.51 123.92-2 123.87-1.95L123.87-1.95Q123.13-1.17 121.62-0.42 120.11 0.34 118.5 0.34L118.5 0.34Q116.05 0.34 114.42-1.27 112.78-2.88 112.78-5.86L112.78-5.86ZM146.25-32.13Q149.59-32.03 151.74-32.03 153.89-32.03 157.26-32.13 160.63-32.23 162.49-32.23L162.49-32.23Q163.71-32.23 165.85-32.76L165.85-32.76 166.78-25.78Q166.44-25.44 165.61-25.44L165.61-25.44Q165.17-25.44 165.12-25.68L165.12-25.68Q164.44-28.42 163.44-29.22 162.44-30.03 159.65-30.03L159.65-30.03Q154.48-30.03 154.28-29.3L154.28-29.3Q153.84-27.73 153.84-24.41L153.84-24.41 153.84-6.79Q153.84-3.96 154.28-2.25L154.28-2.25Q154.38-1.9 155.65-1.59 156.92-1.27 157.41-1.27L157.41-1.27Q157.6-1.27 157.6-0.54L157.6-0.54Q157.6-0.15 157.5 0.15L157.5 0.15Q152.62-0.1 151.84-0.1L151.84-0.1Q151.6-0.1 145.98 0.15L145.98 0.15Q145.79-0.05 145.79-0.59L145.79-0.59Q145.79-1.27 145.98-1.27L145.98-1.27Q146.62-1.27 147.86-1.56 149.11-1.86 149.25-2.25L149.25-2.25Q149.59-3.56 149.59-6.59L149.59-6.59 149.59-24.27Q149.59-28.52 149.15-29.3L149.15-29.3Q148.76-30.03 143.88-30.03L143.88-30.03Q141.1-30.03 140.1-29.22 139.1-28.42 138.41-25.68L138.41-25.68Q138.36-25.44 137.92-25.44L137.92-25.44Q137.09-25.44 136.75-25.78L136.75-25.78 137.68-32.76Q139.83-32.23 141.05-32.23L141.05-32.23Q142.9-32.23 146.25-32.13ZM179.04-19.48L179.04-19.48Q176.5-19.48 175.15-17.31 173.81-15.14 173.81-13.72L173.81-13.72Q173.81-13.38 174.1-13.38L174.1-13.38 183.63-13.38Q183.87-13.38 183.87-13.87L183.87-13.87Q183.87-15.43 182.55-17.46 181.23-19.48 179.04-19.48ZM179.52-21.29L179.52-21.29Q181.77-21.29 183.48-20.43 185.19-19.58 186.09-18.24 186.99-16.89 187.41-15.5 187.82-14.11 187.82-12.74L187.82-12.74Q187.82-11.77 187.53-11.55 187.24-11.33 186.41-11.33L186.41-11.33 174.1-11.33Q173.71-11.33 173.71-11.08L173.71-11.08Q173.71-8.01 175.57-5.42 177.42-2.83 180.94-2.83L180.94-2.83Q181.96-2.83 182.89-3.03 183.82-3.22 184.48-3.49 185.14-3.76 185.6-4.03 186.07-4.3 186.41-4.54L186.41-4.54 186.75-4.79Q187.04-4.79 187.04-4.15L187.04-4.15Q187.04-3.76 186.75-3.27L186.75-3.27Q185.77-1.9 183.87-0.81 181.96 0.29 179.72 0.29L179.72 0.29Q175.67 0.29 172.76-2.76 169.86-5.81 169.86-10.21L169.86-10.21Q169.86-15.33 172.61-18.31 175.37-21.29 179.52-21.29ZM200.32-21.29L200.32-21.29Q205.69-21.29 207.74-18.8L207.74-18.8Q207.74-15.53 205.94-15.53L205.94-15.53Q205.11-15.53 204.67-15.89 204.23-16.26 203.54-17.24L203.54-17.24Q202.03-19.48 199.93-19.48L199.93-19.48Q197.93-19.48 196.29-17.58 194.66-15.67 194.66-11.91L194.66-11.91Q194.66-8.01 196.59-5.42 198.52-2.83 201.93-2.83L201.93-2.83Q202.96-2.83 203.89-3.03 204.81-3.22 205.47-3.49 206.13-3.76 206.6-4.03 207.06-4.3 207.4-4.54L207.4-4.54 207.74-4.79Q208.04-4.79 208.04-4.15L208.04-4.15Q208.04-3.76 207.74-3.27L207.74-3.27Q206.77-1.9 204.86-0.81 202.96 0.29 200.71 0.29L200.71 0.29Q196.66 0.29 193.75-2.76 190.85-5.81 190.85-10.21L190.85-10.21Q190.85-14.7 193.29-17.99 195.73-21.29 200.32-21.29ZM224.05-21.39L224.05-21.39Q227.32-21.39 228.74-19.04 230.15-16.7 230.15-11.82L230.15-11.82 230.15-6.54Q230.15-3.76 230.54-2.25L230.54-2.25Q230.64-1.9 231.81-1.59 232.99-1.27 233.47-1.27L233.47-1.27Q233.62-1.27 233.67-0.68 233.72-0.1 233.62 0.15L233.62 0.15Q228.74-0.1 228.4-0.1L228.4-0.1Q228.25-0.1 223.27 0.15L223.27 0.15Q223.07-0.05 223.07-0.66 223.07-1.27 223.27-1.27L223.27-1.27Q223.85-1.27 224.9-1.59 225.95-1.9 226.05-2.25L226.05-2.25Q226.39-3.66 226.39-5.66L226.39-5.66 226.39-10.84Q226.39-15.33 225.15-16.87 223.9-18.41 221.32-18.41L221.32-18.41Q219.85-18.41 218.41-17.26 216.97-16.11 216.97-15.23L216.97-15.23 216.97-6.59Q216.97-3.76 217.36-2.25L217.36-2.25Q217.46-1.9 218.63-1.59 219.8-1.27 220.29-1.27L220.29-1.27Q220.44-1.27 220.49-0.68 220.53-0.1 220.44 0.15L220.44 0.15Q215.55-0.1 215.21-0.1L215.21-0.1Q214.92-0.1 209.89 0.15L209.89 0.15Q209.69-0.05 209.69-0.66 209.69-1.27 209.89-1.27L209.89-1.27Q210.48-1.27 211.62-1.59 212.77-1.9 212.87-2.25L212.87-2.25Q213.21-3.66 213.21-5.62L213.21-5.62 213.21-26.81Q213.21-28.47 212.92-29.93L212.92-29.93Q212.67-30.71 210.43-30.71L210.43-30.71 209.99-30.71Q209.69-30.71 209.69-31.25L209.69-31.25Q209.69-32.03 209.99-32.03L209.99-32.03Q211.45-32.18 212.7-32.42 213.94-32.67 214.65-32.91 215.36-33.15 215.85-33.37 216.33-33.59 216.53-33.74L216.53-33.74 216.77-33.89 216.87-33.89Q217.07-33.89 217.26-33.62 217.46-33.35 217.51-33.11L217.51-33.11Q216.97-31.54 216.97-28.86L216.97-28.86 216.97-18.16Q216.97-17.97 217.07-17.97L217.07-17.97Q217.12-17.97 217.21-18.07L217.21-18.07Q218.29-19.24 220.27-20.31 222.24-21.39 224.05-21.39Z" opacity="1" transform="matrix(1,0,0,1,0,0)" fill="#3d3839" class="wordmark-text-0" data-fill-palette-color="primary" id="text-0"></path></svg></g></svg></g></svg></g></svg></g></svg></g><defs></defs></svg><rect width="395.52" height="58.326806246061196" fill="none" stroke="none" visibility="hidden"></rect></g></svg></g></svg>